<svg xmlns="http://www.w3.org/2000/svg" viewBox="0 0 128 128"><circle cx="64" cy="64" r="64" fill="#cc649c"/><path d="M78.734 15.965c-2.502.141-5.899.61-8.212 1.132-1.111.25-4.95 1.305-5.158 1.417-.122.065-.874.345-1.67.622-.797.278-1.734.616-2.085.754-2.303.9-3.336 1.316-3.513 1.415-.112.063-.771.355-1.465.65-6.905 2.931-14.846 7.712-20.115 12.11-2.334 1.948-3.726 3.272-5.312 5.048-5.167 5.79-7.987 11.49-7.98 16.132.008 5.702 5.163 12.414 14.713 19.16a342.102 342.102 0 005.042 3.513c1.044.71 1.14.778 3.097 2.216 2.325 1.708 2.287 1.62.987 2.292-13.459 6.938-19.573 13.421-19.576 20.757-.001 5.046 1.98 7.952 5.92 8.68 9.154 1.693 19.237-4.198 22.294-13.024l.524-1.513c1.172-3.406 1.182-10.287.02-13.07-.324-.777-.26-.89.685-1.171 2.263-.675 8.124-.691 10.473-.03.245.07.932.249 1.527.398 4.799 1.2 8.03 3.952 9.222 7.854.847 2.774-.226 5.413-2.994 7.363-2.307 1.627-.954 2.511 1.537 1.005 3.036-1.835 4.503-4.31 4.492-7.57-.026-6.93-6.42-12.849-14.867-13.761-3.716-.4-9.56.106-12.696 1.102-.174.055-.567-.25-1.535-1.193-1.868-1.818-3.673-3.326-7.413-6.195-7.373-5.653-10.045-8.684-11.347-12.866-.5-1.607-.277-5.893.385-7.384.093-.21.324-.792.51-1.293 1.388-3.702 5.685-8.53 11.102-12.47 6.823-4.965 16.31-9.822 23.223-11.892a33.826 33.826 0 001.4-.448c1.719-.627 6.866-1.614 9.613-1.842 9.221-.767 15.636 1.565 17.334 6.301.445 1.238.226 5.226-.328 5.983-.05.07-.225.5-.385.955-1.4 3.959-5.21 8.443-10 11.773-.813.565-3.955 2.487-4.065 2.487-.026 0-.697.309-1.493.686a34.47 34.47 0 01-2.527 1.075c-.596.213-1.397.507-1.782.652-4.23 1.59-11.545 2.446-14.898 1.74-2.786-.587-5.348-1.814-6.538-3.13-2.156-2.385-2.898-.354-.906 2.478 2.438 3.467 6.605 5.117 13.24 5.244 16.745.32 31.909-8.995 35.893-22.05.255-.84.518-1.7.584-1.91.73-2.364.644-6.626-.184-9.138-1.514-4.591-6.158-8.38-12.121-9.89-.219-.055-.45-.132-.514-.171-.157-.098-2.848-.552-4.626-.781-1.835-.237-5.262-.33-7.512-.203m-27.631 69.9c1.048 1.958.522 7.594-1.004 10.77-3.927 8.171-15.037 12.492-15.037 5.85 0-4.909 4.742-10.611 12.669-15.236 3.126-1.825 3.135-1.828 3.372-1.384z" fill="#fbfafa"/></svg>
